<?xml version="1.0" standalone="no"?>
<!DOCTYPE svg PUBLIC "-//W3C//DTD SVG 20010904//EN"
 "http://www.w3.org/TR/2001/REC-SVG-20010904/DTD/svg10.dtd">
<svg version="1.0" xmlns="http://www.w3.org/2000/svg"
 width="1024.000000pt" height="1024.000000pt" viewBox="0 0 1024.000000 1024.000000"
 preserveAspectRatio="xMidYMid meet">
<metadata>
Created by potrace 1.11, written by Peter Selinger 2001-2013
</metadata>
<g transform="translate(0.000000,1024.000000) scale(0.100000,-0.100000)"
fill="#000000" stroke="none">
<path d="M328 10229 c-104 -25 -225 -115 -271 -203 -56 -107 -52 94 -54 -2508
l-3 -2398 852 -427 853 -428 -1 -335 c-1 -286 -10 -754 -19 -965 -9 -201 -20
-411 -30 -535 -2 -30 -7 -102 -10 -160 -3 -58 -8 -121 -10 -140 -2 -19 -7 -69
-10 -110 -9 -109 -23 -254 -31 -320 -2 -19 -6 -66 -9 -105 -3 -38 -8 -81 -10
-95 -2 -14 -6 -50 -10 -80 -3 -30 -10 -89 -15 -130 -5 -41 -12 -95 -15 -120
-3 -25 -7 -56 -10 -70 -2 -14 -7 -47 -10 -75 -8 -68 -21 -161 -30 -220 -3 -16
-7 -47 -10 -67 -6 -46 -15 -104 -20 -137 -2 -13 -7 -45 -11 -70 -4 -25 -8 -55
-10 -66 -4 -18 -15 -89 -30 -180 -2 -16 -6 -41 -9 -55 -3 -14 -7 -41 -10 -60
-3 -19 -8 -42 -10 -50 -3 -8 -7 -35 -10 -59 -3 -24 -8 -48 -11 -52 -3 -5 1676
-9 3765 -9 l3769 0 -8 33 c-5 17 -11 50 -15 72 -3 22 -10 65 -15 95 -5 30 -11
69 -14 85 -2 17 -11 73 -20 125 -9 52 -18 113 -21 135 -3 22 -8 49 -10 60 -4
19 -46 315 -59 415 -4 25 -8 56 -10 70 -2 14 -7 52 -11 85 -4 32 -8 66 -10 75
-2 8 -6 44 -9 80 -4 36 -8 76 -10 90 -4 23 -11 82 -21 185 -2 22 -7 60 -9 85
-3 25 -8 77 -11 115 -3 39 -8 86 -10 105 -3 19 -7 71 -10 115 -4 44 -8 99 -10
121 -2 23 -6 81 -10 130 -3 49 -7 116 -10 149 -28 391 -47 969 -49 1510 l-1
330 853 428 852 427 -2 2398 c-3 2339 -3 2398 -22 2442 -41 95 -117 184 -191
223 -103 54 -48 51 -930 54 -588 3 -834 0 -870 -8 -104 -24 -235 -121 -280
-208 -50 -98 -49 -78 -50 -806 l-1 -680 -625 -1 c-343 -1 -631 0 -639 2 -14 4
-16 78 -16 672 -1 743 0 728 -70 835 -67 100 -164 167 -274 187 -61 11 -2289
10 -2325 -2 -109 -34 -224 -126 -269 -216 -48 -97 -49 -113 -50 -817 l-1 -660
-637 -1 -638 0 0 657 c0 443 -4 675 -11 711 -14 66 -62 160 -106 204 -18 19
-56 49 -85 68 -50 31 -62 37 -120 54 -35 10 -1657 12 -1700 1z m3402 -3174
c143 -15 293 -79 412 -174 151 -122 243 -266 289 -458 21 -86 22 -105 23 -958
l0 -870 -824 0 -824 0 0 875 c1 869 1 876 23 960 66 254 217 440 445 550 96
46 185 70 281 77 39 3 72 7 74 9 2 2 13 2 25 -1 12 -2 46 -7 76 -10z m2927 1
c202 -17 411 -129 547 -293 92 -111 162 -268 183 -413 8 -55 10 -1738 2 -1751
-3 -5 -340 -8 -824 -7 l-819 3 0 845 c0 465 4 870 7 900 15 127 80 294 151
385 154 198 364 316 591 332 39 3 72 7 73 8 2 2 9 2 15 0 7 -2 40 -6 74 -9z"/>
</g>
</svg>
