<svg width="64" height="64" viewBox="0 0 64 64" fill="none" xmlns="http://www.w3.org/2000/svg">
<path fill-rule="evenodd" clip-rule="evenodd" d="M61.2187 0.125H51.9218C51.2173 0.125 50.5417 0.404854 50.0436 0.902997C49.5454 1.40114 49.2656 2.07677 49.2656 2.78125V10.75H41.2968V2.78125C41.2968 2.07677 41.017 1.40114 40.5188 0.902997C40.0207 0.404854 39.3451 0.125 38.6406 0.125H25.3594C24.6549 0.125 23.9792 0.404854 23.4811 0.902997C22.983 1.40114 22.7031 2.07677 22.7031 2.78125V10.75H14.751V2.78125C14.751 2.07677 14.4711 1.40114 13.973 0.902997C13.4748 0.404854 12.7992 0.125 12.0947 0.125H2.78125C2.07677 0.125 1.40114 0.404854 0.902997 0.902997C0.404854 1.40114 0.125 2.07677 0.125 2.78125V32L10.75 37.3125C10.75 45.336 10.4943 53.0839 8.55693 63.8749H32H55.443C53.5056 53.0839 53.25 45.2347 53.25 37.3125L63.8749 32V2.78125C63.8749 2.07677 63.5951 1.40114 63.0969 0.902997C62.5988 0.404854 61.9232 0.125 61.2187 0.125ZM22.7213 19.9055C25.5542 19.9055 27.8507 22.202 27.8507 25.0348V35.2935H17.592V25.0348C17.592 22.202 19.8885 19.9055 22.7213 19.9055ZM46.1554 25.0348C46.1554 22.202 43.8589 19.9055 41.0261 19.9055C38.1932 19.9055 35.8967 22.202 35.8967 25.0348V35.2935H46.1554V25.0348Z" fill="#FFFFFF"/>
</svg>
